<mxfile host="app.diagrams.net" modified="2020-04-04T06:47:34.357Z" agent="5.0 (Windows NT 10.0; Win64; x64) AppleWebKit/537.36 (KHTML, like Gecko) Chrome/80.0.3987.163 Safari/537.36" etag="3zONvJOcEfhkg84obC0h" version="12.9.7" type="github">
  <diagram name="Page-1" id="42789a77-a242-8287-6e28-9cd8cfd52e62">
    <mxGraphModel dx="1422" dy="762" grid="1" gridSize="10" guides="1" tooltips="1" connect="1" arrows="1" fold="1" page="1" pageScale="1" pageWidth="1100" pageHeight="850" background="#ffffff" math="0" shadow="0">
      <root>
        <mxCell id="0" />
        <mxCell id="1" parent="0" />
        <mxCell id="ZxgmMFEClVDVy1VnZzGN-1" value="面对对象分析" style="ellipse;whiteSpace=wrap;html=1;rounded=0;shadow=1;comic=0;labelBackgroundColor=none;strokeWidth=1;fontFamily=Verdana;fontSize=12;align=center;" vertex="1" parent="1">
          <mxGeometry x="140" y="380" width="90" height="60" as="geometry" />
        </mxCell>
        <mxCell id="ZxgmMFEClVDVy1VnZzGN-2" value="面对对象设计" style="ellipse;whiteSpace=wrap;html=1;rounded=0;shadow=1;comic=0;labelBackgroundColor=none;strokeWidth=1;fontFamily=Verdana;fontSize=12;align=center;" vertex="1" parent="1">
          <mxGeometry x="332.5" y="380" width="90" height="60" as="geometry" />
        </mxCell>
        <mxCell id="ZxgmMFEClVDVy1VnZzGN-3" value="面对对象编程" style="ellipse;whiteSpace=wrap;html=1;rounded=0;shadow=1;comic=0;labelBackgroundColor=none;strokeWidth=1;fontFamily=Verdana;fontSize=12;align=center;" vertex="1" parent="1">
          <mxGeometry x="540" y="380" width="90" height="60" as="geometry" />
        </mxCell>
        <mxCell id="ZxgmMFEClVDVy1VnZzGN-5" value="做什么？" style="ellipse;whiteSpace=wrap;html=1;rounded=0;shadow=1;comic=0;labelBackgroundColor=none;strokeWidth=1;fontFamily=Verdana;fontSize=12;align=center;" vertex="1" parent="1">
          <mxGeometry x="140" y="240" width="90" height="60" as="geometry" />
        </mxCell>
        <mxCell id="ZxgmMFEClVDVy1VnZzGN-6" value="怎么做？" style="ellipse;whiteSpace=wrap;html=1;rounded=0;shadow=1;comic=0;labelBackgroundColor=none;strokeWidth=1;fontFamily=Verdana;fontSize=12;align=center;" vertex="1" parent="1">
          <mxGeometry x="332.5" y="240" width="90" height="60" as="geometry" />
        </mxCell>
        <mxCell id="ZxgmMFEClVDVy1VnZzGN-7" value="搞清楚" style="edgeStyle=none;rounded=1;html=1;labelBackgroundColor=none;startArrow=none;startFill=0;startSize=5;endArrow=classicThin;endFill=1;endSize=5;jettySize=auto;orthogonalLoop=1;strokeColor=#B3B3B3;strokeWidth=1;fontFamily=Verdana;fontSize=12;exitX=0.5;exitY=0;exitDx=0;exitDy=0;entryX=0.5;entryY=1;entryDx=0;entryDy=0;dashed=1;" edge="1" parent="1" source="ZxgmMFEClVDVy1VnZzGN-1" target="ZxgmMFEClVDVy1VnZzGN-5">
          <mxGeometry relative="1" as="geometry">
            <mxPoint x="279.61478118577224" y="48.65945502162549" as="sourcePoint" />
            <mxPoint x="352.9174826258486" y="191.3332133908375" as="targetPoint" />
          </mxGeometry>
        </mxCell>
        <mxCell id="ZxgmMFEClVDVy1VnZzGN-8" value="搞清楚" style="edgeStyle=none;rounded=1;html=1;labelBackgroundColor=none;startArrow=none;startFill=0;startSize=5;endArrow=classicThin;endFill=1;endSize=5;jettySize=auto;orthogonalLoop=1;strokeColor=#B3B3B3;strokeWidth=1;fontFamily=Verdana;fontSize=12;exitX=0.5;exitY=0;exitDx=0;exitDy=0;entryX=0.5;entryY=1;entryDx=0;entryDy=0;dashed=1;" edge="1" parent="1">
          <mxGeometry relative="1" as="geometry">
            <mxPoint x="377" y="380" as="sourcePoint" />
            <mxPoint x="377" y="300" as="targetPoint" />
          </mxGeometry>
        </mxCell>
        <mxCell id="ZxgmMFEClVDVy1VnZzGN-9" value="代码" style="ellipse;whiteSpace=wrap;html=1;rounded=0;shadow=1;comic=0;labelBackgroundColor=none;strokeWidth=1;fontFamily=Verdana;fontSize=12;align=center;" vertex="1" parent="1">
          <mxGeometry x="540" y="240" width="90" height="60" as="geometry" />
        </mxCell>
        <mxCell id="ZxgmMFEClVDVy1VnZzGN-10" value="实现" style="edgeStyle=none;rounded=1;html=1;labelBackgroundColor=none;startArrow=none;startFill=0;startSize=5;endArrow=classicThin;endFill=1;endSize=5;jettySize=auto;orthogonalLoop=1;strokeColor=#B3B3B3;strokeWidth=1;fontFamily=Verdana;fontSize=12;exitX=0.5;exitY=0;exitDx=0;exitDy=0;entryX=0.5;entryY=1;entryDx=0;entryDy=0;dashed=1;" edge="1" parent="1">
          <mxGeometry relative="1" as="geometry">
            <mxPoint x="584.5" y="380" as="sourcePoint" />
            <mxPoint x="584.5" y="300" as="targetPoint" />
          </mxGeometry>
        </mxCell>
        <mxCell id="ZxgmMFEClVDVy1VnZzGN-11" value="" style="edgeStyle=none;rounded=1;html=1;labelBackgroundColor=none;startArrow=none;startFill=0;startSize=5;endArrow=classicThin;endFill=1;endSize=5;jettySize=auto;orthogonalLoop=1;strokeColor=#B3B3B3;strokeWidth=1;fontFamily=Verdana;fontSize=12;exitX=1;exitY=0.5;exitDx=0;exitDy=0;entryX=0;entryY=0.5;entryDx=0;entryDy=0;" edge="1" parent="1" source="ZxgmMFEClVDVy1VnZzGN-5" target="ZxgmMFEClVDVy1VnZzGN-6">
          <mxGeometry relative="1" as="geometry">
            <mxPoint x="280" y="270" as="sourcePoint" />
            <mxPoint x="280" y="370" as="targetPoint" />
          </mxGeometry>
        </mxCell>
        <mxCell id="ZxgmMFEClVDVy1VnZzGN-12" value="" style="edgeStyle=none;rounded=1;html=1;labelBackgroundColor=none;startArrow=none;startFill=0;startSize=5;endArrow=classicThin;endFill=1;endSize=5;jettySize=auto;orthogonalLoop=1;strokeColor=#B3B3B3;strokeWidth=1;fontFamily=Verdana;fontSize=12;entryX=0;entryY=0.5;entryDx=0;entryDy=0;exitX=1;exitY=0.5;exitDx=0;exitDy=0;" edge="1" parent="1" source="ZxgmMFEClVDVy1VnZzGN-6" target="ZxgmMFEClVDVy1VnZzGN-9">
          <mxGeometry relative="1" as="geometry">
            <mxPoint x="430" y="270" as="sourcePoint" />
            <mxPoint x="522.5" y="269.5" as="targetPoint" />
          </mxGeometry>
        </mxCell>
        <mxCell id="ZxgmMFEClVDVy1VnZzGN-45" value="基本概念" style="ellipse;whiteSpace=wrap;html=1;rounded=0;shadow=1;comic=0;labelBackgroundColor=none;strokeWidth=1;fontFamily=Verdana;fontSize=12;align=center;" vertex="1" parent="1">
          <mxGeometry x="430" y="540" width="90" height="60" as="geometry" />
        </mxCell>
        <mxCell id="ZxgmMFEClVDVy1VnZzGN-46" value="三大特性" style="ellipse;whiteSpace=wrap;html=1;rounded=0;shadow=1;comic=0;labelBackgroundColor=none;strokeWidth=1;fontFamily=Verdana;fontSize=12;align=center;" vertex="1" parent="1">
          <mxGeometry x="740" y="540" width="90" height="60" as="geometry" />
        </mxCell>
        <mxCell id="ZxgmMFEClVDVy1VnZzGN-49" value="类" style="ellipse;whiteSpace=wrap;html=1;rounded=0;shadow=1;comic=0;labelBackgroundColor=none;strokeWidth=1;fontFamily=Verdana;fontSize=12;align=center;" vertex="1" parent="1">
          <mxGeometry x="390" y="640" width="60" height="40" as="geometry" />
        </mxCell>
        <mxCell id="ZxgmMFEClVDVy1VnZzGN-51" value="对象" style="ellipse;whiteSpace=wrap;html=1;rounded=0;shadow=1;comic=0;labelBackgroundColor=none;strokeWidth=1;fontFamily=Verdana;fontSize=12;align=center;" vertex="1" parent="1">
          <mxGeometry x="500" y="640" width="60" height="40" as="geometry" />
        </mxCell>
        <mxCell id="ZxgmMFEClVDVy1VnZzGN-52" value="" style="edgeStyle=none;rounded=1;html=1;labelBackgroundColor=none;startArrow=none;startFill=0;startSize=5;endArrow=classicThin;endFill=1;endSize=5;jettySize=auto;orthogonalLoop=1;strokeColor=#B3B3B3;strokeWidth=1;fontFamily=Verdana;fontSize=12;exitX=0.5;exitY=1;exitDx=0;exitDy=0;" edge="1" parent="1" source="ZxgmMFEClVDVy1VnZzGN-45" target="ZxgmMFEClVDVy1VnZzGN-49">
          <mxGeometry relative="1" as="geometry">
            <mxPoint x="412.5" y="300" as="sourcePoint" />
            <mxPoint x="530" y="300" as="targetPoint" />
          </mxGeometry>
        </mxCell>
        <mxCell id="ZxgmMFEClVDVy1VnZzGN-53" value="" style="edgeStyle=none;rounded=1;html=1;labelBackgroundColor=none;startArrow=none;startFill=0;startSize=5;endArrow=classicThin;endFill=1;endSize=5;jettySize=auto;orthogonalLoop=1;strokeColor=#B3B3B3;strokeWidth=1;fontFamily=Verdana;fontSize=12;entryX=0.5;entryY=0;entryDx=0;entryDy=0;exitX=0.5;exitY=1;exitDx=0;exitDy=0;" edge="1" parent="1" source="ZxgmMFEClVDVy1VnZzGN-45" target="ZxgmMFEClVDVy1VnZzGN-51">
          <mxGeometry relative="1" as="geometry">
            <mxPoint x="470" y="600" as="sourcePoint" />
            <mxPoint x="437.56471661532737" y="653.7864154320052" as="targetPoint" />
          </mxGeometry>
        </mxCell>
        <mxCell id="ZxgmMFEClVDVy1VnZzGN-54" value="" style="edgeStyle=none;rounded=1;html=1;labelBackgroundColor=none;startArrow=none;startFill=0;startSize=5;endArrow=classicThin;endFill=1;endSize=5;jettySize=auto;orthogonalLoop=1;strokeColor=#B3B3B3;strokeWidth=1;fontFamily=Verdana;fontSize=12;entryX=0.5;entryY=0;entryDx=0;entryDy=0;exitX=0.5;exitY=1;exitDx=0;exitDy=0;" edge="1" parent="1" source="ZxgmMFEClVDVy1VnZzGN-3" target="ZxgmMFEClVDVy1VnZzGN-45">
          <mxGeometry relative="1" as="geometry">
            <mxPoint x="432.5" y="280" as="sourcePoint" />
            <mxPoint x="550" y="280" as="targetPoint" />
          </mxGeometry>
        </mxCell>
        <mxCell id="ZxgmMFEClVDVy1VnZzGN-55" value="" style="edgeStyle=none;rounded=1;html=1;labelBackgroundColor=none;startArrow=none;startFill=0;startSize=5;endArrow=classicThin;endFill=1;endSize=5;jettySize=auto;orthogonalLoop=1;strokeColor=#B3B3B3;strokeWidth=1;fontFamily=Verdana;fontSize=12;entryX=0.5;entryY=0;entryDx=0;entryDy=0;exitX=0.5;exitY=1;exitDx=0;exitDy=0;" edge="1" parent="1" source="ZxgmMFEClVDVy1VnZzGN-3" target="ZxgmMFEClVDVy1VnZzGN-46">
          <mxGeometry relative="1" as="geometry">
            <mxPoint x="595" y="450" as="sourcePoint" />
            <mxPoint x="485" y="550" as="targetPoint" />
          </mxGeometry>
        </mxCell>
        <mxCell id="ZxgmMFEClVDVy1VnZzGN-56" value="封装" style="ellipse;whiteSpace=wrap;html=1;rounded=0;shadow=1;comic=0;labelBackgroundColor=none;strokeWidth=1;fontFamily=Verdana;fontSize=12;align=center;" vertex="1" parent="1">
          <mxGeometry x="640" y="660" width="90" height="60" as="geometry" />
        </mxCell>
        <mxCell id="ZxgmMFEClVDVy1VnZzGN-57" value="继承" style="ellipse;whiteSpace=wrap;html=1;rounded=0;shadow=1;comic=0;labelBackgroundColor=none;strokeWidth=1;fontFamily=Verdana;fontSize=12;align=center;" vertex="1" parent="1">
          <mxGeometry x="770" y="660" width="90" height="60" as="geometry" />
        </mxCell>
        <mxCell id="ZxgmMFEClVDVy1VnZzGN-58" value="多态" style="ellipse;whiteSpace=wrap;html=1;rounded=0;shadow=1;comic=0;labelBackgroundColor=none;strokeWidth=1;fontFamily=Verdana;fontSize=12;align=center;" vertex="1" parent="1">
          <mxGeometry x="920" y="660" width="90" height="60" as="geometry" />
        </mxCell>
        <mxCell id="ZxgmMFEClVDVy1VnZzGN-59" value="" style="edgeStyle=none;rounded=1;html=1;labelBackgroundColor=none;startArrow=none;startFill=0;startSize=5;endArrow=classicThin;endFill=1;endSize=5;jettySize=auto;orthogonalLoop=1;strokeColor=#B3B3B3;strokeWidth=1;fontFamily=Verdana;fontSize=12;entryX=0.5;entryY=0;entryDx=0;entryDy=0;exitX=0.5;exitY=1;exitDx=0;exitDy=0;" edge="1" parent="1" source="ZxgmMFEClVDVy1VnZzGN-46" target="ZxgmMFEClVDVy1VnZzGN-56">
          <mxGeometry relative="1" as="geometry">
            <mxPoint x="595" y="450" as="sourcePoint" />
            <mxPoint x="485" y="550" as="targetPoint" />
          </mxGeometry>
        </mxCell>
        <mxCell id="ZxgmMFEClVDVy1VnZzGN-60" value="" style="edgeStyle=none;rounded=1;html=1;labelBackgroundColor=none;startArrow=none;startFill=0;startSize=5;endArrow=classicThin;endFill=1;endSize=5;jettySize=auto;orthogonalLoop=1;strokeColor=#B3B3B3;strokeWidth=1;fontFamily=Verdana;fontSize=12;entryX=0.5;entryY=0;entryDx=0;entryDy=0;exitX=0.5;exitY=1;exitDx=0;exitDy=0;" edge="1" parent="1" source="ZxgmMFEClVDVy1VnZzGN-46" target="ZxgmMFEClVDVy1VnZzGN-57">
          <mxGeometry relative="1" as="geometry">
            <mxPoint x="795" y="610" as="sourcePoint" />
            <mxPoint x="695" y="670" as="targetPoint" />
          </mxGeometry>
        </mxCell>
        <mxCell id="ZxgmMFEClVDVy1VnZzGN-61" value="" style="edgeStyle=none;rounded=1;html=1;labelBackgroundColor=none;startArrow=none;startFill=0;startSize=5;endArrow=classicThin;endFill=1;endSize=5;jettySize=auto;orthogonalLoop=1;strokeColor=#B3B3B3;strokeWidth=1;fontFamily=Verdana;fontSize=12;entryX=0.5;entryY=0;entryDx=0;entryDy=0;" edge="1" parent="1" target="ZxgmMFEClVDVy1VnZzGN-58">
          <mxGeometry relative="1" as="geometry">
            <mxPoint x="790" y="600" as="sourcePoint" />
            <mxPoint x="705" y="680" as="targetPoint" />
          </mxGeometry>
        </mxCell>
        <mxCell id="ZxgmMFEClVDVy1VnZzGN-62" value="" style="edgeStyle=none;rounded=1;html=1;labelBackgroundColor=none;startArrow=none;startFill=0;startSize=5;endArrow=classicThin;endFill=1;endSize=5;jettySize=auto;orthogonalLoop=1;strokeColor=#B3B3B3;strokeWidth=1;fontFamily=Verdana;fontSize=12;entryX=0;entryY=0.5;entryDx=0;entryDy=0;exitX=1;exitY=0.5;exitDx=0;exitDy=0;dashed=1;" edge="1" parent="1" source="ZxgmMFEClVDVy1VnZzGN-45" target="ZxgmMFEClVDVy1VnZzGN-46">
          <mxGeometry relative="1" as="geometry">
            <mxPoint x="432.5" y="280" as="sourcePoint" />
            <mxPoint x="550" y="280" as="targetPoint" />
          </mxGeometry>
        </mxCell>
        <mxCell id="ZxgmMFEClVDVy1VnZzGN-63" value="实现" style="text;html=1;align=center;verticalAlign=middle;resizable=0;points=[];" vertex="1" connectable="0" parent="ZxgmMFEClVDVy1VnZzGN-62">
          <mxGeometry x="-0.1" y="-2" relative="1" as="geometry">
            <mxPoint as="offset" />
          </mxGeometry>
        </mxCell>
      </root>
    </mxGraphModel>
  </diagram>
</mxfile>
